M48
; DRILL file {KiCad 9.0.7} date 2026-03-27T21:56:50+0100
; FORMAT={-:-/ absolute / metric / decimal}
; #@! TF.CreationDate,2026-03-27T21:56:50+01:00
; #@! TF.GenerationSoftware,Kicad,Pcbnew,9.0.7
; #@! TF.FileFunction,NonPlated,1,2,NPTH
FMAT,2
METRIC
; #@! TA.AperFunction,NonPlated,NPTH,ComponentDrill
T1C1.700
; #@! TA.AperFunction,NonPlated,NPTH,ComponentDrill
T2C3.200
; #@! TA.AperFunction,NonPlated,NPTH,ComponentDrill
T3C4.000
%
G90
G05
T1
X87.661Y-85.799
X87.661Y-104.799
X87.661Y-123.994
X97.821Y-85.799
X97.821Y-104.799
X97.821Y-123.994
X106.661Y-85.799
X106.661Y-104.799
X106.661Y-123.799
X116.821Y-85.799
X116.821Y-104.799
X116.821Y-123.799
X125.581Y-104.799
X125.621Y-123.879
X125.661Y-85.7
X135.741Y-104.799
X135.781Y-123.879
X135.821Y-85.7
T2
X81.8Y-56.4
X81.8Y-133.0
X141.0Y-56.4
X141.0Y-133.0
T3
X92.741Y-85.799
X92.741Y-104.799
X92.741Y-123.994
X111.741Y-85.799
X111.741Y-104.799
X111.741Y-123.799
X130.661Y-104.799
X130.701Y-123.879
X130.741Y-85.7
M30
