M48
; DRILL file {KiCad 9.0.7} date 2026-03-27T21:56:50+0100
; FORMAT={-:-/ absolute / metric / decimal}
; #@! TF.CreationDate,2026-03-27T21:56:50+01:00
; #@! TF.GenerationSoftware,Kicad,Pcbnew,9.0.7
; #@! TF.FileFunction,Plated,1,2,PTH
FMAT,2
METRIC
; #@! TA.AperFunction,Plated,PTH,ViaDrill
T1C0.300
; #@! TA.AperFunction,Plated,PTH,ComponentDrill
T2C0.800
; #@! TA.AperFunction,Plated,PTH,ComponentDrill
T3C1.000
; #@! TA.AperFunction,Plated,PTH,ComponentDrill
T4C1.500
; #@! TA.AperFunction,Plated,PTH,ComponentDrill
T5C2.600
%
G90
G05
T1
X101.0Y-92.0
X101.0Y-97.0
X103.0Y-68.0
X106.0Y-70.0
X107.0Y-63.0
X111.0Y-65.0
X124.0Y-71.0
X126.0Y-73.0
T2
X88.681Y-132.394
X88.781Y-94.199
X89.231Y-113.199
X96.301Y-132.394
X96.401Y-94.199
X96.851Y-113.199
X107.681Y-132.149
X107.731Y-113.149
X107.781Y-94.149
X115.301Y-132.149
X115.351Y-113.149
X115.401Y-94.149
X126.781Y-94.0
X127.141Y-132.179
X127.151Y-112.999
X134.401Y-94.0
X134.761Y-132.179
X134.771Y-112.999
T3
X98.75Y-57.0
X98.75Y-59.54
X98.75Y-62.08
X98.75Y-64.62
X98.75Y-67.16
X98.75Y-69.7
X98.75Y-72.24
X114.0Y-57.0
X114.0Y-59.54
X114.0Y-62.08
X114.0Y-64.62
X114.0Y-67.16
X114.0Y-69.7
X114.0Y-72.24
X120.5Y-61.19
X120.5Y-63.73
X120.5Y-66.27
X120.5Y-68.81
X123.75Y-62.5
X123.75Y-65.0
X123.75Y-67.5
X138.25Y-62.5
X138.25Y-67.5
T4
X88.931Y-83.259
X88.931Y-102.259
X88.931Y-121.454
X95.281Y-80.719
X95.281Y-99.719
X95.281Y-118.914
X107.931Y-83.259
X107.931Y-102.259
X107.931Y-121.259
X114.281Y-80.719
X114.281Y-99.719
X114.281Y-118.719
X126.851Y-102.259
X126.891Y-121.339
X126.931Y-83.16
X133.201Y-99.719
X133.241Y-118.799
X133.281Y-80.62
T5
X131.25Y-59.4
X131.25Y-70.6
M30
